<svg xmlns="http://www.w3.org/2000/svg" version="1.1" xmlns:xlink="http://www.w3.org/1999/xlink" xmlns:svgjs="http://svgjs.dev/svgjs" width="1000" height="131" viewBox="0 0 1000 131"><g transform="matrix(1,0,0,1,-0.6060336782790614,-0.4134359697959411)"><svg viewBox="0 0 396 52" data-background-color="#ffffff" preserveAspectRatio="xMidYMid meet" height="131" width="1000" xmlns="http://www.w3.org/2000/svg" xmlns:xlink="http://www.w3.org/1999/xlink"><g id="tight-bounds" transform="matrix(1,0,0,1,0.23998933659851218,0.16411198801060323)"><svg viewBox="0 0 395.52 51.67177602397878" height="51.67177602397878" width="395.52"><g><svg viewBox="0 0 482.39115667686264 63.0208530637007" height="51.67177602397878" width="395.52"><g><rect width="5.222229097328081" height="63.0208530637007" x="67.97817078024642" y="0" fill="#0063db" opacity="1" stroke-width="0" stroke="transparent" fill-opacity="1" class="rect-o-0" data-fill-palette-color="primary" rx="1%" id="o-0" data-palette-color="#0063db"></rect></g><g transform="matrix(1,0,0,1,86.87115667686267,0.15676829120323177)"><svg viewBox="0 0 395.52 62.707316481294235" height="62.707316481294235" width="395.52"><g><svg viewBox="0 0 395.52 62.707316481294235" height="62.707316481294235" width="395.52"><g><svg viewBox="0 0 395.52 62.707316481294235" height="62.707316481294235" width="395.52"><g transform="matrix(1,0,0,1,0,0)"><svg width="395.52" viewBox="3.2999989986419678 -35.599998474121094 247.24998474121094 36.20000076293945" height="62.707316481294235" data-palette-color="#0063db"><svg></svg><g class="undefined-text-0" data-fill-palette-color="primary" id="text-0"><path xmlns="http://www.w3.org/2000/svg" d="M16.65 0.6v0c-2.5 0-4.757-0.493-6.77-1.48-2.02-0.98-3.62-2.487-4.8-4.52-1.187-2.033-1.78-4.617-1.78-7.75v0-21.85h5.3v21.9c0 3.067 0.733 5.317 2.2 6.75 1.467 1.433 3.45 2.15 5.95 2.15v0c2.467 0 4.433-0.717 5.9-2.15 1.467-1.433 2.2-3.683 2.2-6.75v0-21.9h5.3v21.85c0 3.133-0.607 5.717-1.82 7.75-1.22 2.033-2.853 3.54-4.9 4.52-2.053 0.987-4.313 1.48-6.78 1.48zM48.5 0.6v0c-2.567 0-4.817-0.45-6.75-1.35-1.933-0.9-3.44-2.183-4.52-3.85-1.087-1.667-1.647-3.65-1.68-5.95v0h5.6c0.033 1.867 0.683 3.45 1.95 4.75 1.267 1.3 3.05 1.95 5.35 1.95v0c2.033 0 3.627-0.493 4.78-1.48 1.147-0.98 1.72-2.237 1.72-3.77v0c0-1.233-0.273-2.233-0.82-3-0.553-0.767-1.303-1.4-2.25-1.9-0.953-0.5-2.047-0.95-3.28-1.35-1.233-0.4-2.533-0.833-3.9-1.3v0c-2.7-0.9-4.723-2.067-6.07-3.5-1.353-1.433-2.03-3.317-2.03-5.65v0c-0.033-1.967 0.427-3.683 1.38-5.15 0.947-1.467 2.28-2.61 4-3.43 1.713-0.813 3.72-1.22 6.02-1.22v0c2.267 0 4.26 0.417 5.98 1.25 1.713 0.833 3.053 1.99 4.02 3.47 0.967 1.487 1.467 3.213 1.5 5.18v0h-5.6c0-0.9-0.233-1.76-0.7-2.58-0.467-0.813-1.15-1.487-2.05-2.02-0.9-0.533-2-0.8-3.3-0.8v0c-1.667-0.033-3.04 0.383-4.12 1.25-1.087 0.867-1.63 2.067-1.63 3.6v0c0 1.367 0.4 2.417 1.2 3.15 0.8 0.733 1.9 1.34 3.3 1.82 1.4 0.487 3 1.047 4.8 1.68v0c1.733 0.567 3.283 1.25 4.65 2.05 1.367 0.8 2.46 1.85 3.28 3.15 0.813 1.3 1.22 2.95 1.22 4.95v0c0 1.767-0.45 3.407-1.35 4.92-0.9 1.52-2.25 2.753-4.05 3.7-1.8 0.953-4.017 1.43-6.65 1.43zM88.6 0h-22.25v-35h22.25v4.3h-16.95v10.9h15.45v4.2h-15.45v11.3h16.95zM100.2 0h-5.3v-35h12.05c2.767 0 5.04 0.467 6.82 1.4 1.787 0.933 3.113 2.19 3.98 3.77 0.867 1.587 1.3 3.347 1.3 5.28v0c0 2.167-0.577 4.133-1.73 5.9-1.147 1.767-2.937 3.033-5.37 3.8v0l7.45 14.85h-6.15l-6.8-14.1h-6.25zM100.2-30.55v12.45h6.45c2.4 0 4.157-0.583 5.27-1.75 1.12-1.167 1.68-2.683 1.68-4.55v0c0-1.867-0.55-3.36-1.65-4.48-1.1-1.113-2.883-1.67-5.35-1.67v0zM140.9 0.6v0c-3.467 0-6.457-0.76-8.97-2.28-2.52-1.513-4.463-3.63-5.83-6.35-1.367-2.713-2.05-5.853-2.05-9.42v0c0-3.6 0.683-6.76 2.05-9.48 1.367-2.713 3.31-4.837 5.83-6.37 2.513-1.533 5.503-2.3 8.97-2.3v0c4.1 0 7.45 1 10.05 3 2.6 2 4.25 4.8 4.95 8.4v0h-5.9c-0.467-2.033-1.467-3.65-3-4.85-1.533-1.2-3.583-1.8-6.15-1.8v0c-3.5 0-6.267 1.19-8.3 3.57-2.033 2.387-3.05 5.663-3.05 9.83v0c0 4.133 1.017 7.383 3.05 9.75 2.033 2.367 4.8 3.55 8.3 3.55v0c2.567 0 4.617-0.567 6.15-1.7 1.533-1.133 2.533-2.683 3-4.65v0h5.9c-0.7 3.467-2.35 6.183-4.95 8.15-2.6 1.967-5.95 2.95-10.05 2.95zM167.05 0h-5.3v-35h5.3v15h16.95v-15h5.3v35h-5.3v-15.65h-16.95zM199.75 0h-5.6l12.9-35h5.8l12.8 35h-5.6l-3-8.55h-14.3zM209.9-28.7l-5.65 15.95h11.3zM240.25 0h-5.3v-30.7h-10.35v-4.3h25.95v4.3h-10.3z" fill="#0063db" fill-rule="nonzero" stroke="none" stroke-width="1" stroke-linecap="butt" stroke-linejoin="miter" stroke-miterlimit="10" stroke-dasharray="" stroke-dashoffset="0" font-family="none" font-weight="none" font-size="none" text-anchor="none" style="mix-blend-mode: normal" data-fill-palette-color="primary" opacity="1"></path></g></svg></g></svg></g></svg></g></svg></g><g transform="matrix(1,0,0,1,0,0.15676829120323177)"><svg viewBox="0 0 54.307413980958245 62.707316481294235" height="62.707316481294235" width="54.307413980958245"><g><svg xmlns="http://www.w3.org/2000/svg" xmlns:xlink="http://www.w3.org/1999/xlink" version="1.1" x="0" y="0" viewBox="9.54699993133545 3.2899999618530273 80.906005859375 93.41999816894531" enable-background="new 0 0 100 100" xml:space="preserve" height="62.707316481294235" width="54.307413980958245" class="icon-icon-0" data-fill-palette-color="accent" id="icon-0"><g fill="#d90000" data-fill-palette-color="accent"><path d="M31.112 39.094v21.812L49.999 71.81l18.89-10.903V39.094l-18.89-10.905L31.112 39.094zM60.925 56.308l-10.926 6.307-10.924-6.307V43.692l10.924-6.308 10.926 6.308V56.308z" fill="#d90000" data-fill-palette-color="accent"></path><path d="M49.999 3.29L9.547 26.646v46.709L49.999 96.71l40.454-23.355V26.646L49.999 3.29zM82.19 68.584L49.999 87.169 17.811 68.584v-37.17l32.188-18.585L82.19 31.414V68.584z" fill="#d90000" data-fill-palette-color="accent"></path><path d="M20.368 32.89v34.218l29.631 17.108 29.634-17.108V32.89L49.999 15.782 20.368 32.89zM71.446 62.383l-21.447 12.38-21.444-12.38V37.618l21.444-12.382 21.447 12.382V62.383z" fill="#d90000" data-fill-palette-color="accent"></path></g></svg></g></svg></g></svg></g><defs></defs></svg><rect width="395.52" height="51.67177602397878" fill="none" stroke="none" visibility="hidden"></rect></g></svg></g></svg>