<svg xmlns="http://www.w3.org/2000/svg" version="1.1" xmlns:xlink="http://www.w3.org/1999/xlink" xmlns:svgjs="http://svgjs.dev/svgjs" width="1000" height="242" viewBox="0 0 1000 242"><g transform="matrix(1,0,0,1,-0.6060604012155295,0.29056334110396165)"><svg viewBox="0 0 396 96" data-background-color="#ffffff" preserveAspectRatio="xMidYMid meet" height="242" width="1000" xmlns="http://www.w3.org/2000/svg" xmlns:xlink="http://www.w3.org/1999/xlink"><g id="tight-bounds" transform="matrix(1,0,0,1,0.24000008111863735,-0.11526479647099563)"><svg viewBox="0 0 395.52 96.23052136951581" height="96.23052136951581" width="395.52"><g><svg viewBox="0 0 611.7670394166771 148.84370236587776" height="96.23052136951581" width="395.52"><g transform="matrix(1,0,0,1,0,20.571018199625655)"><svg viewBox="0 0 395.52 107.70166596662645" height="107.70166596662645" width="395.52"><g><svg viewBox="0 0 395.52 107.70166596662645" height="107.70166596662645" width="395.52"><g><svg viewBox="0 0 395.52 58.08913225058004" height="58.08913225058004" width="395.52"><g transform="matrix(1,0,0,1,0,0)"><svg width="395.52" viewBox="3.6100001335144043 -30.65999984741211 210.44000244140625 30.899999618530273" height="58.08913225058004" data-palette-color="#6f605b"><g class="undefined-text-0" data-fill-palette-color="primary" id="text-0"><path d="M15.45 0.24Q11.67 0.24 9.01-0.94 6.35-2.12 4.98-4.37 3.61-6.62 3.61-9.74L3.61-9.74 3.61-29.52Q3.61-30.49 5.35-30.49L5.35-30.49 5.69-30.49Q7.42-30.49 7.42-29.52L7.42-29.52 7.42-9.59Q7.42-7.69 8.47-6.2 9.52-4.71 11.35-3.88 13.18-3.05 15.45-3.05L15.45-3.05Q17.75-3.05 19.58-3.89 21.41-4.74 22.45-6.23 23.49-7.71 23.49-9.59L23.49-9.59 23.49-29.52Q23.49-30.49 25.22-30.49L25.22-30.49 25.59-30.49Q27.29-30.49 27.29-29.52L27.29-29.52 27.29-9.74Q27.29-6.62 25.93-4.37 24.56-2.12 21.9-0.94 19.24 0.24 15.45 0.24L15.45 0.24ZM41.5 0.24Q39.11 0.24 37.05-0.28 34.98-0.81 33.75-1.55 32.52-2.29 32.52-2.91L32.52-2.91Q32.52-3.25 32.8-3.81 33.08-4.37 33.44-4.81 33.81-5.25 34.03-5.25L34.03-5.25Q34.23-5.25 34.89-4.86L34.89-4.86Q36.4-4.08 37.89-3.56 39.38-3.05 41.5-3.05L41.5-3.05Q43.16-3.05 44.46-3.69 45.75-4.32 46.47-5.48 47.19-6.64 47.19-8.15L47.19-8.15Q47.19-9.77 46.32-10.83 45.46-11.89 44.22-12.51 42.99-13.13 40.65-14.06L40.65-14.06Q38.11-15.04 36.63-15.88 35.15-16.72 34.12-18.33 33.08-19.95 33.08-22.61L33.08-22.61Q33.08-24.93 34.27-26.77 35.47-28.61 37.67-29.64 39.87-30.66 42.72-30.66L42.72-30.66Q44.02-30.66 45.68-30.31 47.34-29.96 48.52-29.35 49.7-28.74 49.7-28L49.7-28Q49.7-27.69 49.45-27.14 49.19-26.59 48.85-26.15 48.51-25.71 48.31-25.71L48.31-25.71Q48.09-25.71 47.43-26.07L47.43-26.07Q46.34-26.66 45.26-27.01 44.19-27.37 42.65-27.37L42.65-27.37Q40.13-27.37 38.58-26.07 37.03-24.78 37.03-22.46L37.03-22.46Q37.03-21.07 37.72-20.17 38.4-19.26 39.45-18.73 40.5-18.19 42.38-17.48L42.38-17.48Q42.5-17.46 42.94-17.29L42.94-17.29Q45.53-16.28 47.18-15.34 48.83-14.4 49.99-12.65 51.14-10.89 51.14-8.15L51.14-8.15Q51.14-5.59 49.96-3.69 48.78-1.78 46.59-0.77 44.41 0.24 41.5 0.24L41.5 0.24ZM58.12 0Q57.44 0 57.12-0.32 56.81-0.63 56.81-1.29L56.81-1.29 56.81-29.08Q56.81-29.76 57.12-30.07 57.44-30.37 58.12-30.37L58.12-30.37 73.26-30.37Q73.73-30.37 73.93-30.08 74.14-29.79 74.14-29.08L74.14-29.08 74.14-28.37Q74.14-27.71 73.93-27.39 73.73-27.08 73.26-27.08L73.26-27.08 60.64-27.08 60.64-17.19 71.97-17.19Q72.43-17.19 72.64-16.87 72.85-16.55 72.85-15.87L72.85-15.87 72.85-15.21Q72.85-14.53 72.64-14.22 72.43-13.92 71.97-13.92L71.97-13.92 60.64-13.92 60.64-3.3 73.31-3.3Q73.77-3.3 73.98-2.99 74.19-2.69 74.19-2L74.19-2 74.19-1.29Q74.19-0.63 73.98-0.32 73.77 0 73.31 0L73.31 0 58.12 0ZM82.27 0.07Q80.51 0.07 80.51-0.88L80.51-0.88 80.51-29.08Q80.51-29.76 80.83-30.07 81.14-30.37 81.83-30.37L81.83-30.37 89.13-30.37Q94.33-30.37 96.95-28.54 99.58-26.71 99.58-22.71L99.58-22.71Q99.58-20 98.27-18.15 96.97-16.31 94.6-15.38L94.6-15.38 94.6-15.21Q95.87-14.77 96.68-13.51 97.5-12.26 98.5-9.79L98.5-9.79 101.9-1.22Q102.02-0.78 102.02-0.61L102.02-0.61Q102.02 0.07 100.19 0.07L100.19 0.07 99.75 0.07Q99.09 0.07 98.61-0.11 98.14-0.29 98.01-0.61L98.01-0.61 94.72-9.13Q94.08-10.79 93.23-11.72 92.38-12.65 91.2-13.01 90.03-13.38 88.25-13.38L88.25-13.38 84.34-13.38 84.34-0.88Q84.34 0.07 82.61 0.07L82.61 0.07 82.27 0.07ZM84.34-16.67L90.06-16.67Q91.59-16.67 92.88-17.41 94.16-18.14 94.9-19.37 95.65-20.61 95.65-22L95.65-22Q95.65-24.56 94.08-25.82 92.52-27.08 89.76-27.08L89.76-27.08 84.34-27.08 84.34-16.67ZM105.51 0Q105.17 0 104.81-0.82 104.46-1.64 104.46-2.29L104.46-2.29Q104.46-2.64 104.58-2.83L104.58-2.83 122.38-27.08 106.75-27.08Q106.29-27.08 106.08-27.43 105.87-27.78 105.87-28.56L105.87-28.56 105.87-28.91Q105.87-29.69 106.08-30.03 106.29-30.37 106.75-30.37L106.75-30.37 126.63-30.37Q126.77-30.37 127-29.98 127.24-29.59 127.41-29.05 127.58-28.52 127.58-28.08L127.58-28.08Q127.58-27.76 127.46-27.56L127.46-27.56 109.66-3.3 126.63-3.3Q127.09-3.3 127.3-2.95 127.5-2.61 127.5-1.83L127.5-1.83 127.5-1.49Q127.5-0.71 127.3-0.35 127.09 0 126.63 0L126.63 0 105.51 0ZM145.37 0.24Q138.85 0.24 135.44-3.71 132.02-7.67 132.02-15.28L132.02-15.28Q132.02-22.88 135.42-26.77 138.83-30.66 145.37-30.66L145.37-30.66Q151.94-30.66 155.36-26.77 158.78-22.88 158.78-15.28L158.78-15.28Q158.78-7.67 155.36-3.71 151.94 0.24 145.37 0.24L145.37 0.24ZM145.37-3.05Q149.96-3.05 152.4-6.19 154.85-9.33 154.85-15.28L154.85-15.28Q154.85-21.24 152.42-24.3 149.99-27.37 145.37-27.37L145.37-27.37Q140.78-27.37 138.37-24.3 135.95-21.24 135.95-15.28L135.95-15.28Q135.95-9.3 138.37-6.18 140.78-3.05 145.37-3.05L145.37-3.05ZM166.93 0.07Q166 0.07 165.59-0.16 165.17-0.39 165.17-0.88L165.17-0.88 165.17-29.52Q165.17-30.49 166.93-30.49L166.93-30.49 167.83-30.49Q168.52-30.49 168.92-30.3 169.32-30.1 169.64-29.66L169.64-29.66 183.51-8.74 184.8-6.3 184.8-29.52Q184.8-30.49 186.51-30.49L186.51-30.49 186.85-30.49Q188.56-30.49 188.56-29.52L188.56-29.52 188.56-0.88Q188.56-0.39 188.14-0.16 187.73 0.07 186.85 0.07L186.85 0.07 185.97 0.07Q185.36 0.07 184.99-0.07 184.63-0.22 184.43-0.54L184.43-0.54 170.13-22.12 168.95-24.37 168.95-0.88Q168.95 0.07 167.22 0.07L167.22 0.07 166.93 0.07ZM197.98 0Q197.3 0 196.98-0.32 196.66-0.63 196.66-1.29L196.66-1.29 196.66-29.08Q196.66-29.76 196.98-30.07 197.3-30.37 197.98-30.37L197.98-30.37 213.12-30.37Q213.58-30.37 213.79-30.08 214-29.79 214-29.08L214-29.08 214-28.37Q214-27.71 213.79-27.39 213.58-27.08 213.12-27.08L213.12-27.08 200.5-27.08 200.5-17.19 211.82-17.19Q212.29-17.19 212.49-16.87 212.7-16.55 212.7-15.87L212.7-15.87 212.7-15.21Q212.7-14.53 212.49-14.22 212.29-13.92 211.82-13.92L211.82-13.92 200.5-13.92 200.5-3.3 213.17-3.3Q213.63-3.3 213.84-2.99 214.05-2.69 214.05-2L214.05-2 214.05-1.29Q214.05-0.63 213.84-0.32 213.63 0 213.17 0L213.17 0 197.98 0Z" fill="#ffffff" data-fill-palette-color="primary"></path></g></svg></g></svg></g><g transform="matrix(1,0,0,1,193.2393181558021,71.80258223576797)"><svg viewBox="0 0 202.2806818441979 35.899083730858464" height="35.899083730858464" width="202.2806818441979"><g transform="matrix(1,0,0,1,0,0)"><svg width="202.2806818441979" viewBox="4.150000095367432 -32.45000076293945 185.0800018310547 32.85000228881836" height="35.899083730858464" data-palette-color="#f36527"><path d="M20.7-4.3L21.05-3.85 20.65 0 4.15 0 4.5-9.65 4.15-32.1 9.45-32.1 9.15-10.1 9.25-4.3 20.7-4.3ZM30.15-25.05L29.9-7.95 30.1 0 25.3 0 25.5-7.5 25.3-25.05 30.15-25.05ZM58.34-25.05L49.15 0 43.4 0 34.95-25.05 39.84-25.05 40.55-21.9 46.25-4.55 46.5-4.55 52.9-21.65 53.59-25.05 58.34-25.05ZM72.64-3.8L79.39-4 79.74-3.65 79.34 0 63.29 0 63.49-7.5 63.29-25.05 79.49-25.05 79.79-24.65 79.44-21 73.09-21.25 68.09-21.2 67.99-14.7 72.79-14.65 77.14-14.8 77.39-14.4 77.09-10.7 72.39-10.85 67.94-10.8 67.89-7.95 67.99-3.85 72.64-3.8ZM105.69-32.45Q110.59-32.45 114.34-30.25L114.34-30.25 113.39-25.7 112.89-25.55Q109.54-28.15 105.49-28.15L105.49-28.15Q101.09-28.15 98.76-25.18 96.44-22.2 96.44-16.3L96.44-16.3Q96.44-10.25 98.79-7.1 101.14-3.95 105.49-3.95L105.49-3.95Q107.59-3.95 109.66-4.67 111.74-5.4 113.49-6.7L113.49-6.7 113.99-6.4 113.59-1.7Q109.29 0.4 105.09 0.4L105.09 0.4Q98.34 0.4 94.69-3.8 91.04-8 91.04-15.75L91.04-15.75Q91.04-23.75 94.86-28.1 98.69-32.45 105.69-32.45L105.69-32.45ZM141.19-25.05L140.94-7.95 141.14 0 136.34 0 136.49-7.5 136.44-10.5 129.99-10.55 124.09-10.45 124.04-7.95 124.24 0 119.44 0 119.64-7.5 119.44-25.05 124.29-25.05 124.14-14.65 130.34-14.55 136.44-14.6 136.34-25.05 141.19-25.05ZM161.28-25.05L169.73 0 164.88 0 164.23-3.1 163.33-5.85 157.73-5.9 152.73-5.85 151.78-3.35 151.08 0 146.33 0 155.68-25.05 161.28-25.05ZM158.08-9.55L162.08-9.6 158.53-20.55 158.18-20.55 154.13-9.6 158.08-9.55ZM188.98-25.05L189.23-24.65 188.93-20.8 184.08-21.15 181.98-21.15 181.88-7.95 182.03 0 177.23 0 177.43-7.5 177.33-21.15 175.28-21.15 170.33-20.8 169.98-21.2 170.33-25.05 188.98-25.05Z" opacity="1" transform="matrix(1,0,0,1,0,0)" fill="#ffffff" class="undefined-text-1" data-fill-palette-color="secondary" id="text-1"></path></svg></g></svg></g></svg></g></svg></g><g transform="matrix(1,0,0,1,409.2334499851879,0)"><svg viewBox="0 0 202.53358943148913 148.84370236587776" height="148.84370236587776" width="202.53358943148913"><g><svg xmlns="http://www.w3.org/2000/svg" xmlns:xlink="http://www.w3.org/1999/xlink" version="1.1" x="0" y="0" viewBox="7.552000045776367 18.47899627685547 87.46800231933594 64.28099822998047" enable-background="new 0 0 100 100" xml:space="preserve" height="148.84370236587776" width="202.53358943148913" class="icon-icon-0" data-fill-palette-color="accent" id="icon-0"><path d="M31.805 41.953c0-5.497 2.443-10.57 6.546-14.639-0.238-0.004-0.474-0.013-0.712-0.013-16.615 0-30.087 9.948-30.087 22.221 0 9.36 7.837 17.36 18.926 20.634l-0.585 12.604 8.693-11.016c0 0 1.642 0 3.053 0 7.925 0 15.129-2.267 20.502-5.965C43.185 63.725 31.805 53.826 31.805 41.953z" fill="#ffffff" data-fill-palette-color="accent"></path><g fill="#f36527" data-fill-palette-color="accent"><path d="M76.966 82.062l-11.95-15.139h-2.081c-17.693 0-32.089-10.865-32.089-24.223 0-13.355 14.396-24.221 32.089-24.221 17.691 0 32.085 10.866 32.085 24.221 0 9.637-7.348 18.172-18.857 22.078L76.966 82.062zM62.935 22.48c-15.487 0-28.089 9.071-28.089 20.221 0 11.15 12.602 20.223 28.089 20.223h4.021l5.437 6.889-0.369-7.949 1.504-0.443C84.153 58.281 91.02 50.934 91.02 42.701 91.02 31.551 78.421 22.48 62.935 22.48z" fill="#ffffff" data-fill-palette-color="accent"></path></g></svg></g></svg></g></svg></g><defs></defs></svg><rect width="395.52" height="96.23052136951581" fill="none" stroke="none" visibility="hidden"></rect></g></svg></g></svg>